<?xml version="1.0" encoding="UTF-8" standalone="no"?>
<!-- Created with Inkscape (http://www.inkscape.org/) -->

<svg
   xmlns:dc="http://purl.org/dc/elements/1.1/"
   xmlns:cc="http://creativecommons.org/ns#"
   xmlns:rdf="http://www.w3.org/1999/02/22-rdf-syntax-ns#"
   xmlns:svg="http://www.w3.org/2000/svg"
   xmlns="http://www.w3.org/2000/svg"
   xmlns:sodipodi="http://sodipodi.sourceforge.net/DTD/sodipodi-0.dtd"
   xmlns:inkscape="http://www.inkscape.org/namespaces/inkscape"
   width="44.525818mm"
   height="31.096491mm"
   viewBox="0 0 44.525818 31.096491"
   version="1.1"
   id="svg8"
   inkscape:version="0.92.5 (2060ec1f9f, 2020-04-08)"
   sodipodi:docname="logo-ceppp.svg">
  <defs
     id="defs2">
    <style
       id="style10">.cls-1{fill:#fff;}.cls-2{fill:none;}.cls-3{fill:#a3cf60;}.cls-4{fill:#b42372;}.cls-5{fill:#0c426a;}.cls-6{fill:#298dc0;}.cls-7{fill:#8bd3da;}.cls-8{fill:#b2e0e1;}.cls-9{fill:#9dd8d9;}.cls-10{fill:#0064a8;}.cls-11{fill:#00416a;}</style>
  </defs>
  <sodipodi:namedview
     id="base"
     pagecolor="#ffffff"
     bordercolor="#666666"
     borderopacity="1.0"
     inkscape:pageopacity="0.0"
     inkscape:pageshadow="2"
     inkscape:zoom="1.4"
     inkscape:cx="54.510192"
     inkscape:cy="-14.773449"
     inkscape:document-units="mm"
     inkscape:current-layer="g249"
     showgrid="false"
     fit-margin-top="0"
     fit-margin-left="0"
     fit-margin-right="0"
     fit-margin-bottom="0"
     inkscape:window-width="3440"
     inkscape:window-height="1376"
     inkscape:window-x="1920"
     inkscape:window-y="27"
     inkscape:window-maximized="1" />
  <metadata
     id="metadata5">
    <rdf:RDF>
      <cc:Work
         rdf:about="">
        <dc:format>image/svg+xml</dc:format>
        <dc:type
           rdf:resource="http://purl.org/dc/dcmitype/StillImage" />
        <dc:title></dc:title>
      </cc:Work>
    </rdf:RDF>
  </metadata>
  <g
     inkscape:label="Layer 1"
     inkscape:groupmode="layer"
     id="layer1"
     transform="translate(-51.367689,-75.017229)">
    <g
       id="g249"
       transform="matrix(0.26458333,0,0,0.26458333,51.364131,75.017229)">
      <g
         data-name="POURTOUR BLANC"
         id="POURTOUR_BLANC">
        <path
           id="path16"
           d="m 153.48,0 h -76.8 a 58.87,58.87 0 0 0 -37,13.16 L 39.45,13.27 38.77,13.9 5.3,42 A 14.82,14.82 0 0 0 3.47,62.86 v 0 l 10.64,12.68 -1.61,4.41 a 14.84,14.84 0 0 0 8.86,19 l 15.32,5.58 a 14.78,14.78 0 0 0 14.71,13 h 58.17 A 58.82,58.82 0 0 0 168.3,58.76 V 14.82 A 14.84,14.84 0 0 0 153.48,0 Z"
           class="cls-1"
           inkscape:connector-curvature="0"
           style="fill:#ffffff" />
      </g>
      <g
         id="SAFE">
        <rect
           id="rect19"
           height="28.610001"
           width="28.610001"
           y="-21.02"
           x="88.510002"
           class="cls-2"
           style="fill:none" />
        <rect
           id="rect21"
           height="28.610001"
           width="28.610001"
           y="110.39"
           x="88.550003"
           class="cls-2"
           style="fill:none" />
        <rect
           id="rect23"
           height="28.610001"
           width="28.610001"
           y="44.540001"
           x="-20.98"
           class="cls-2"
           style="fill:none" />
      </g>
      <g
         id="LOGO">
        <path
           id="path26"
           d="M 44.16,19.87 A 51.25,51.25 0 0 1 120.55,32 51.25,51.25 0 0 0 54,30.17 l -0.74,0.61 -0.73,0.63 A 51.26,51.26 0 0 0 42.74,97.22 51.63,51.63 0 0 1 37.82,92.06 L 9.6,58.43 a 7.32,7.32 0 0 1 0.89,-10.31 v 0 L 44.15,19.88 v 0 z"
           class="cls-3"
           inkscape:connector-curvature="0"
           style="fill:#a3cf60" />
        <path
           id="path28"
           d="M 35,41.61 A 51.25,51.25 0 0 1 100.65,11 a 51.79,51.79 0 0 1 6.52,2.9 51.26,51.26 0 0 0 -58.5,31.69 c -0.12,0.3 -0.23,0.6 -0.34,0.9 -0.11,0.3 -0.22,0.6 -0.32,0.91 a 51.25,51.25 0 0 0 24.43,61.88 51.76,51.76 0 0 1 -6.86,-2 l -41.28,-15 a 7.33,7.33 0 0 1 -4.38,-9.39 l 15,-41.28 v 0 z"
           class="cls-4"
           inkscape:connector-curvature="0"
           style="fill:#b42372" />
        <path
           id="path30"
           d="m 58.7,60.06 v -1 c 0,0.36 -0.01,0.71 0,1 z"
           class="cls-2"
           inkscape:connector-curvature="0"
           style="fill:none" />
        <path
           id="path32"
           d="m 72.87,59.13 a 37,37 0 0 1 29.9,-36.33 37,37 0 0 1 0,72.66 37,37 0 0 1 -29.9,-36.33 z"
           class="cls-2"
           inkscape:connector-curvature="0"
           style="fill:none" />
        <path
           id="path34"
           d="M 44.45,59.12 A 51.25,51.25 0 0 1 95.7,7.88 51.84,51.84 0 0 1 102.82,8.37 51.25,51.25 0 0 0 58.7,58.17 v 2 A 51.26,51.26 0 0 0 102.82,110 51.76,51.76 0 0 1 95.7,110.49 H 51.77 a 7.32,7.32 0 0 1 -7.32,-7.32 c 0,0 0,-0.05 0,-0.08 v -43.95 0 z"
           class="cls-5"
           inkscape:connector-curvature="0"
           style="fill:#0c426a" />
        <path
           id="path36"
           d="m 132.71,59.13 a 37,37 0 0 0 -29.9,-36.33 37,37 0 0 1 44.12,35.36 v 2 a 37,37 0 0 1 -37,36 37.4,37.4 0 0 1 -7.12,-0.68 37,37 0 0 0 29.9,-36.33 z"
           class="cls-6"
           inkscape:connector-curvature="0"
           style="fill:#298dc0" />
        <path
           id="path38"
           d="m 146.94,60.06 v -2 A 51.26,51.26 0 0 0 102.82,8.27 51.9,51.9 0 0 1 109.94,7.78 h 43.93 a 7.32,7.32 0 0 1 7.32,7.32 v 0 44 0 a 51.25,51.25 0 0 1 -51.25,51.24 51.82,51.82 0 0 1 -7.12,-0.49 51.26,51.26 0 0 0 44.12,-49.79 z"
           class="cls-7"
           inkscape:connector-curvature="0"
           style="fill:#8bd3da" />
        <path
           id="path40"
           d="m 95.7,22.11 a 37.26,37.26 0 0 1 7.12,0.69 37,37 0 0 0 0,72.66 37.07,37.07 0 0 1 -44.12,-35.4 v -2 a 37,37 0 0 1 37,-36 z"
           class="cls-8"
           inkscape:connector-curvature="0"
           style="fill:#b2e0e1" />
        <path
           id="path42"
           d="m 58.7,60.06 a 37.07,37.07 0 0 0 44.12,35.37 37.4,37.4 0 0 0 7.12,0.68 37,37 0 0 0 37,-36.05 51.26,51.26 0 0 1 -44.12,49.8 51.26,51.26 0 0 1 -44.12,-49.8 z"
           class="cls-9"
           inkscape:connector-curvature="0"
           style="fill:#9dd8d9" />
        <path
           id="path44"
           d="M 146.94,58.17 A 37,37 0 0 0 102.82,22.81 37,37 0 0 0 58.7,58.17 51.25,51.25 0 0 1 102.82,8.38 51.26,51.26 0 0 1 146.94,58.17 Z"
           class="cls-10"
           inkscape:connector-curvature="0"
           style="fill:#0064a8" />
      </g>
    </g>
  </g>
</svg>
